<mxfile host="app.diagrams.net" modified="2024-05-26T17:47:18.439Z" agent="Mozilla/5.0 (Windows NT 10.0; Win64; x64) AppleWebKit/537.36 (KHTML, like Gecko) Chrome/123.0.0.0 Safari/537.36 OPR/109.0.0.0" etag="gvLXdoJYW3O7WexJi6Ic" version="24.2.7" type="github">
  <diagram name="Page-1" id="e7e014a7-5840-1c2e-5031-d8a46d1fe8dd">
    <mxGraphModel dx="2910" dy="958" grid="0" gridSize="10" guides="1" tooltips="1" connect="1" arrows="1" fold="1" page="1" pageScale="1" pageWidth="1169" pageHeight="826" background="#CCCCE6" math="0" shadow="0">
      <root>
        <mxCell id="0" />
        <mxCell id="1" parent="0" />
        <mxCell id="HUgngF4sUjFD6s-CNiiS-120" value="SISTEMA DE VENTAS" style="swimlane;whiteSpace=wrap;html=1;swimlaneFillColor=#E4EDF5;" vertex="1" parent="1">
          <mxGeometry x="-450" y="6" width="1448" height="713" as="geometry" />
        </mxCell>
        <mxCell id="HUgngF4sUjFD6s-CNiiS-171" style="edgeStyle=orthogonalEdgeStyle;rounded=0;orthogonalLoop=1;jettySize=auto;html=1;exitX=0.5;exitY=0;exitDx=0;exitDy=0;" edge="1" parent="HUgngF4sUjFD6s-CNiiS-120" source="HUgngF4sUjFD6s-CNiiS-159">
          <mxGeometry relative="1" as="geometry">
            <mxPoint x="295.14285714285734" y="176.71428571428578" as="targetPoint" />
          </mxGeometry>
        </mxCell>
        <mxCell id="HUgngF4sUjFD6s-CNiiS-159" value="PUNTO DE&lt;br&gt;VENTA FISICO" style="whiteSpace=wrap;html=1;" vertex="1" parent="HUgngF4sUjFD6s-CNiiS-120">
          <mxGeometry x="235.5" y="255" width="120" height="60" as="geometry" />
        </mxCell>
        <mxCell id="HUgngF4sUjFD6s-CNiiS-166" value="SISTEMA DE VENTAS" style="whiteSpace=wrap;html=1;" vertex="1" parent="HUgngF4sUjFD6s-CNiiS-120">
          <mxGeometry x="45.5" y="264" width="120" height="60" as="geometry" />
        </mxCell>
        <mxCell id="HUgngF4sUjFD6s-CNiiS-181" style="edgeStyle=orthogonalEdgeStyle;rounded=0;orthogonalLoop=1;jettySize=auto;html=1;entryX=0.5;entryY=0;entryDx=0;entryDy=0;" edge="1" parent="HUgngF4sUjFD6s-CNiiS-120" source="HUgngF4sUjFD6s-CNiiS-165" target="HUgngF4sUjFD6s-CNiiS-166">
          <mxGeometry relative="1" as="geometry" />
        </mxCell>
        <mxCell id="HUgngF4sUjFD6s-CNiiS-165" value="FACTURA DE ENTRADA DE PRODUCTOS" style="whiteSpace=wrap;html=1;" vertex="1" parent="HUgngF4sUjFD6s-CNiiS-120">
          <mxGeometry x="45.5" y="124" width="120" height="60" as="geometry" />
        </mxCell>
        <mxCell id="2" value="GESTION DE SISTEMA" style="swimlane;whiteSpace=wrap;swimlaneFillColor=#F0F0F0;fillColor=#A7C9EB;strokeColor=#36393d;" parent="HUgngF4sUjFD6s-CNiiS-120" vertex="1">
          <mxGeometry x="417" y="50" width="315.5" height="572" as="geometry" />
        </mxCell>
        <mxCell id="7" value="CLIENTE" style="" parent="2" vertex="1">
          <mxGeometry x="60" y="110" width="110" height="50" as="geometry" />
        </mxCell>
        <mxCell id="HUgngF4sUjFD6s-CNiiS-97" style="edgeStyle=orthogonalEdgeStyle;rounded=0;orthogonalLoop=1;jettySize=auto;html=1;exitX=0;exitY=0.5;exitDx=0;exitDy=0;entryX=-0.021;entryY=0.167;entryDx=0;entryDy=0;entryPerimeter=0;" edge="1" parent="2" source="8" target="HUgngF4sUjFD6s-CNiiS-98">
          <mxGeometry relative="1" as="geometry">
            <mxPoint x="87.5" y="532" as="targetPoint" />
            <Array as="points">
              <mxPoint x="60" y="252" />
              <mxPoint x="16" y="252" />
              <mxPoint x="16" y="432" />
              <mxPoint x="86" y="432" />
              <mxPoint x="86" y="422" />
              <mxPoint x="87" y="422" />
            </Array>
          </mxGeometry>
        </mxCell>
        <mxCell id="8" value="PROVEEDORES" style="" parent="2" vertex="1">
          <mxGeometry x="60" y="220" width="110" height="50" as="geometry" />
        </mxCell>
        <mxCell id="HUgngF4sUjFD6s-CNiiS-160" style="edgeStyle=orthogonalEdgeStyle;rounded=0;orthogonalLoop=1;jettySize=auto;html=1;entryX=0;entryY=0.5;entryDx=0;entryDy=0;exitX=0;exitY=0.5;exitDx=0;exitDy=0;" edge="1" parent="2" source="10" target="7">
          <mxGeometry relative="1" as="geometry" />
        </mxCell>
        <mxCell id="10" value="REGISTRO &#xa;DE VENTA " style="" parent="2" vertex="1">
          <mxGeometry x="60" y="325" width="110" height="50" as="geometry" />
        </mxCell>
        <mxCell id="11" value="" style="endArrow=open;endFill=1;rounded=0" parent="2" source="8" target="10" edge="1">
          <mxGeometry relative="1" as="geometry" />
        </mxCell>
        <mxCell id="HUgngF4sUjFD6s-CNiiS-42" style="edgeStyle=orthogonalEdgeStyle;rounded=0;orthogonalLoop=1;jettySize=auto;html=1;entryX=0;entryY=0.5;entryDx=0;entryDy=0;exitX=1;exitY=0.5;exitDx=0;exitDy=0;fillColor=#d0cee2;strokeColor=#56517e;strokeWidth=3;" edge="1" parent="2" target="15">
          <mxGeometry relative="1" as="geometry">
            <mxPoint x="170" y="132" as="sourcePoint" />
            <mxPoint x="300" y="92" as="targetPoint" />
          </mxGeometry>
        </mxCell>
        <mxCell id="HUgngF4sUjFD6s-CNiiS-186" style="edgeStyle=orthogonalEdgeStyle;rounded=0;orthogonalLoop=1;jettySize=auto;html=1;" edge="1" parent="2" source="HUgngF4sUjFD6s-CNiiS-98" target="10">
          <mxGeometry relative="1" as="geometry" />
        </mxCell>
        <mxCell id="HUgngF4sUjFD6s-CNiiS-98" value="ORDEN DE PROVEEDOR" style="swimlane;fontStyle=0;childLayout=stackLayout;horizontal=1;startSize=30;horizontalStack=0;resizeParent=1;resizeParentMax=0;resizeLast=0;collapsible=1;marginBottom=0;whiteSpace=wrap;html=1;" vertex="1" parent="2">
          <mxGeometry x="90" y="410" width="137.75" height="150" as="geometry" />
        </mxCell>
        <mxCell id="HUgngF4sUjFD6s-CNiiS-99" value="&lt;div&gt;Código de proveedor&lt;/div&gt;&lt;div&gt;&lt;br&gt;&lt;/div&gt;" style="text;strokeColor=none;fillColor=none;align=left;verticalAlign=middle;spacingLeft=4;spacingRight=4;overflow=hidden;points=[[0,0.5],[1,0.5]];portConstraint=eastwest;rotatable=0;whiteSpace=wrap;html=1;" vertex="1" parent="HUgngF4sUjFD6s-CNiiS-98">
          <mxGeometry y="30" width="137.75" height="30" as="geometry" />
        </mxCell>
        <mxCell id="HUgngF4sUjFD6s-CNiiS-100" value="&lt;div&gt;Código de producto&lt;/div&gt;&lt;div&gt;&lt;br&gt;&lt;/div&gt;" style="text;strokeColor=none;fillColor=none;align=left;verticalAlign=middle;spacingLeft=4;spacingRight=4;overflow=hidden;points=[[0,0.5],[1,0.5]];portConstraint=eastwest;rotatable=0;whiteSpace=wrap;html=1;" vertex="1" parent="HUgngF4sUjFD6s-CNiiS-98">
          <mxGeometry y="60" width="137.75" height="30" as="geometry" />
        </mxCell>
        <mxCell id="HUgngF4sUjFD6s-CNiiS-101" value="&lt;div&gt;Cantidad&lt;br&gt;&lt;/div&gt;" style="text;strokeColor=none;fillColor=none;align=left;verticalAlign=middle;spacingLeft=4;spacingRight=4;overflow=hidden;points=[[0,0.5],[1,0.5]];portConstraint=eastwest;rotatable=0;whiteSpace=wrap;html=1;" vertex="1" parent="HUgngF4sUjFD6s-CNiiS-98">
          <mxGeometry y="90" width="137.75" height="30" as="geometry" />
        </mxCell>
        <mxCell id="HUgngF4sUjFD6s-CNiiS-111" value="precio de compra" style="text;strokeColor=none;fillColor=none;align=left;verticalAlign=middle;spacingLeft=4;spacingRight=4;overflow=hidden;points=[[0,0.5],[1,0.5]];portConstraint=eastwest;rotatable=0;whiteSpace=wrap;html=1;" vertex="1" parent="HUgngF4sUjFD6s-CNiiS-98">
          <mxGeometry y="120" width="137.75" height="30" as="geometry" />
        </mxCell>
        <mxCell id="HUgngF4sUjFD6s-CNiiS-161" style="edgeStyle=orthogonalEdgeStyle;rounded=0;orthogonalLoop=1;jettySize=auto;html=1;entryX=1;entryY=0.25;entryDx=0;entryDy=0;" edge="1" parent="HUgngF4sUjFD6s-CNiiS-120" source="7" target="HUgngF4sUjFD6s-CNiiS-159">
          <mxGeometry relative="1" as="geometry">
            <Array as="points">
              <mxPoint x="427.5" y="135" />
              <mxPoint x="427.5" y="282" />
              <mxPoint x="375.5" y="282" />
            </Array>
          </mxGeometry>
        </mxCell>
        <mxCell id="HUgngF4sUjFD6s-CNiiS-162" style="edgeStyle=orthogonalEdgeStyle;rounded=0;orthogonalLoop=1;jettySize=auto;html=1;entryX=0.5;entryY=1;entryDx=0;entryDy=0;" edge="1" parent="HUgngF4sUjFD6s-CNiiS-120" source="10" target="HUgngF4sUjFD6s-CNiiS-159">
          <mxGeometry relative="1" as="geometry">
            <Array as="points">
              <mxPoint x="369" y="360" />
              <mxPoint x="369" y="344" />
              <mxPoint x="296" y="344" />
            </Array>
          </mxGeometry>
        </mxCell>
        <mxCell id="3" value="REGISTRO DE DATOS" style="swimlane;whiteSpace=wrap;fillColor=default;strokeColor=default;dashed=1;strokeWidth=0;gradientColor=none;swimlaneFillColor=#EDEDED;" parent="HUgngF4sUjFD6s-CNiiS-120" vertex="1">
          <mxGeometry x="742" y="52.5" width="563" height="598.5" as="geometry" />
        </mxCell>
        <mxCell id="HUgngF4sUjFD6s-CNiiS-50" style="edgeStyle=orthogonalEdgeStyle;rounded=0;orthogonalLoop=1;jettySize=auto;html=1;exitX=1;exitY=0.5;exitDx=0;exitDy=0;entryX=0.025;entryY=0.4;entryDx=0;entryDy=0;entryPerimeter=0;" edge="1" parent="3" source="15" target="HUgngF4sUjFD6s-CNiiS-54">
          <mxGeometry relative="1" as="geometry">
            <mxPoint x="310" y="95" as="targetPoint" />
          </mxGeometry>
        </mxCell>
        <mxCell id="15" value="GESTION DE&#xa; USARIO " style="" parent="3" vertex="1">
          <mxGeometry x="20" y="106" width="110" height="50" as="geometry" />
        </mxCell>
        <mxCell id="16" value="PRODUCTOS" style="" parent="3" vertex="1">
          <mxGeometry x="20" y="218" width="110" height="50" as="geometry" />
        </mxCell>
        <mxCell id="17" value="" style="endArrow=open;endFill=1;rounded=0;fillColor=#d0cee2;strokeColor=#56517e;strokeWidth=3;" parent="3" source="15" target="16" edge="1">
          <mxGeometry relative="1" as="geometry" />
        </mxCell>
        <mxCell id="18" value="DATOS  DE&#xa; PRODUCTO" style="" parent="3" vertex="1">
          <mxGeometry x="20" y="325" width="110" height="50" as="geometry" />
        </mxCell>
        <mxCell id="19" value="" style="endArrow=open;strokeColor=#56517e;endFill=1;rounded=0;fillColor=#d0cee2;strokeWidth=3;" parent="3" source="16" target="18" edge="1">
          <mxGeometry relative="1" as="geometry" />
        </mxCell>
        <mxCell id="21" value="COMPRA &#xa;A PROVEEDRO" style="rhombus;" parent="3" vertex="1">
          <mxGeometry x="225" y="225" width="110" height="40" as="geometry" />
        </mxCell>
        <mxCell id="24" value="" style="endArrow=open;endFill=1;rounded=0;" parent="3" source="16" target="21" edge="1">
          <mxGeometry relative="1" as="geometry" />
        </mxCell>
        <mxCell id="HUgngF4sUjFD6s-CNiiS-55" style="edgeStyle=orthogonalEdgeStyle;rounded=0;orthogonalLoop=1;jettySize=auto;html=1;exitX=0.5;exitY=1;exitDx=0;exitDy=0;" edge="1" parent="3" source="30">
          <mxGeometry relative="1" as="geometry">
            <mxPoint x="270" y="442" as="targetPoint" />
          </mxGeometry>
        </mxCell>
        <mxCell id="30" value="iNVENTARIO" style="" parent="3" vertex="1">
          <mxGeometry x="215.5" y="325" width="110" height="50" as="geometry" />
        </mxCell>
        <mxCell id="HUgngF4sUjFD6s-CNiiS-52" style="edgeStyle=orthogonalEdgeStyle;rounded=0;orthogonalLoop=1;jettySize=auto;html=1;exitX=0.5;exitY=1;exitDx=0;exitDy=0;entryX=0.595;entryY=0.14;entryDx=0;entryDy=0;entryPerimeter=0;" edge="1" parent="3" source="21" target="30">
          <mxGeometry relative="1" as="geometry" />
        </mxCell>
        <mxCell id="HUgngF4sUjFD6s-CNiiS-53" value="SE INGRESA A INENTARIO" style="edgeLabel;html=1;align=center;verticalAlign=middle;resizable=0;points=[];" vertex="1" connectable="0" parent="HUgngF4sUjFD6s-CNiiS-52">
          <mxGeometry x="-0.0221" y="-2" relative="1" as="geometry">
            <mxPoint as="offset" />
          </mxGeometry>
        </mxCell>
        <mxCell id="HUgngF4sUjFD6s-CNiiS-54" value="DATOS DE USUARIO" style="whiteSpace=wrap;html=1;" vertex="1" parent="3">
          <mxGeometry x="225" y="107" width="120" height="60" as="geometry" />
        </mxCell>
        <mxCell id="HUgngF4sUjFD6s-CNiiS-56" value="Registrar entradas y salidas de productos" style="shape=process;whiteSpace=wrap;html=1;backgroundOutline=1;" vertex="1" parent="3">
          <mxGeometry x="210.5" y="420" width="120" height="60" as="geometry" />
        </mxCell>
        <mxCell id="HUgngF4sUjFD6s-CNiiS-62" style="edgeStyle=orthogonalEdgeStyle;rounded=0;orthogonalLoop=1;jettySize=auto;html=1;entryX=0;entryY=0.5;entryDx=0;entryDy=0;exitX=1.029;exitY=0.167;exitDx=0;exitDy=0;exitPerimeter=0;" edge="1" parent="3" source="HUgngF4sUjFD6s-CNiiS-112">
          <mxGeometry relative="1" as="geometry">
            <mxPoint x="160" y="468" as="sourcePoint" />
            <mxPoint x="210.5" y="467" as="targetPoint" />
          </mxGeometry>
        </mxCell>
        <mxCell id="HUgngF4sUjFD6s-CNiiS-88" style="edgeStyle=orthogonalEdgeStyle;rounded=0;orthogonalLoop=1;jettySize=auto;html=1;exitX=0.521;exitY=1.1;exitDx=0;exitDy=0;exitPerimeter=0;" edge="1" parent="3" source="HUgngF4sUjFD6s-CNiiS-92" target="HUgngF4sUjFD6s-CNiiS-84">
          <mxGeometry relative="1" as="geometry">
            <mxPoint x="480" y="178.5" as="sourcePoint" />
            <Array as="points">
              <mxPoint x="476" y="228" />
              <mxPoint x="476" y="243" />
              <mxPoint x="480" y="243" />
            </Array>
          </mxGeometry>
        </mxCell>
        <mxCell id="HUgngF4sUjFD6s-CNiiS-87" style="edgeStyle=orthogonalEdgeStyle;rounded=0;orthogonalLoop=1;jettySize=auto;html=1;entryX=1;entryY=0.5;entryDx=0;entryDy=0;" edge="1" parent="3" source="HUgngF4sUjFD6s-CNiiS-84" target="30">
          <mxGeometry relative="1" as="geometry" />
        </mxCell>
        <mxCell id="HUgngF4sUjFD6s-CNiiS-84" value="REMBOLSO" style="triangle;whiteSpace=wrap;html=1;" vertex="1" parent="3">
          <mxGeometry x="450" y="310" width="100" height="80" as="geometry" />
        </mxCell>
        <mxCell id="HUgngF4sUjFD6s-CNiiS-89" value="ODEN DE CLIENTE" style="swimlane;fontStyle=0;childLayout=stackLayout;horizontal=1;startSize=30;horizontalStack=0;resizeParent=1;resizeParentMax=0;resizeLast=0;collapsible=1;marginBottom=0;whiteSpace=wrap;html=1;" vertex="1" parent="3">
          <mxGeometry x="410" y="105" width="140" height="120" as="geometry" />
        </mxCell>
        <mxCell id="HUgngF4sUjFD6s-CNiiS-90" value="&amp;nbsp;NOMBRE Y DIRECION" style="text;strokeColor=none;fillColor=none;align=left;verticalAlign=middle;spacingLeft=4;spacingRight=4;overflow=hidden;points=[[0,0.5],[1,0.5]];portConstraint=eastwest;rotatable=0;whiteSpace=wrap;html=1;" vertex="1" parent="HUgngF4sUjFD6s-CNiiS-89">
          <mxGeometry y="30" width="140" height="30" as="geometry" />
        </mxCell>
        <mxCell id="HUgngF4sUjFD6s-CNiiS-91" value="&amp;nbsp;ID UNICO" style="text;strokeColor=none;fillColor=none;align=left;verticalAlign=middle;spacingLeft=4;spacingRight=4;overflow=hidden;points=[[0,0.5],[1,0.5]];portConstraint=eastwest;rotatable=0;whiteSpace=wrap;html=1;" vertex="1" parent="HUgngF4sUjFD6s-CNiiS-89">
          <mxGeometry y="60" width="140" height="30" as="geometry" />
        </mxCell>
        <mxCell id="HUgngF4sUjFD6s-CNiiS-92" value="CODIGO DE VENTA" style="text;strokeColor=none;fillColor=none;align=left;verticalAlign=middle;spacingLeft=4;spacingRight=4;overflow=hidden;points=[[0,0.5],[1,0.5]];portConstraint=eastwest;rotatable=0;whiteSpace=wrap;html=1;" vertex="1" parent="HUgngF4sUjFD6s-CNiiS-89">
          <mxGeometry y="90" width="140" height="30" as="geometry" />
        </mxCell>
        <mxCell id="HUgngF4sUjFD6s-CNiiS-95" style="edgeStyle=orthogonalEdgeStyle;rounded=0;orthogonalLoop=1;jettySize=auto;html=1;entryX=-0.029;entryY=0.175;entryDx=0;entryDy=0;entryPerimeter=0;" edge="1" parent="3" source="HUgngF4sUjFD6s-CNiiS-54" target="HUgngF4sUjFD6s-CNiiS-89">
          <mxGeometry relative="1" as="geometry">
            <mxPoint x="400" y="170" as="targetPoint" />
            <Array as="points">
              <mxPoint x="390" y="137" />
              <mxPoint x="390" y="126" />
            </Array>
          </mxGeometry>
        </mxCell>
        <mxCell id="HUgngF4sUjFD6s-CNiiS-116" value="" style="edgeStyle=orthogonalEdgeStyle;rounded=0;orthogonalLoop=1;jettySize=auto;html=1;exitX=0.5;exitY=1;exitDx=0;exitDy=0;" edge="1" parent="3" source="18" target="HUgngF4sUjFD6s-CNiiS-112">
          <mxGeometry relative="1" as="geometry">
            <mxPoint x="555" y="543" as="targetPoint" />
            <mxPoint x="555" y="505" as="sourcePoint" />
          </mxGeometry>
        </mxCell>
        <mxCell id="HUgngF4sUjFD6s-CNiiS-112" value="ORDEN DE PRODUCTO" style="swimlane;fontStyle=0;childLayout=stackLayout;horizontal=1;startSize=30;horizontalStack=0;resizeParent=1;resizeParentMax=0;resizeLast=0;collapsible=1;marginBottom=0;whiteSpace=wrap;html=1;" vertex="1" parent="3">
          <mxGeometry x="5" y="410" width="140" height="180" as="geometry" />
        </mxCell>
        <mxCell id="HUgngF4sUjFD6s-CNiiS-113" value="&lt;div&gt;Código de producto&lt;/div&gt;" style="text;strokeColor=none;fillColor=none;align=left;verticalAlign=middle;spacingLeft=4;spacingRight=4;overflow=hidden;points=[[0,0.5],[1,0.5]];portConstraint=eastwest;rotatable=0;whiteSpace=wrap;html=1;" vertex="1" parent="HUgngF4sUjFD6s-CNiiS-112">
          <mxGeometry y="30" width="140" height="30" as="geometry" />
        </mxCell>
        <mxCell id="HUgngF4sUjFD6s-CNiiS-114" value="Nombre" style="text;strokeColor=none;fillColor=none;align=left;verticalAlign=middle;spacingLeft=4;spacingRight=4;overflow=hidden;points=[[0,0.5],[1,0.5]];portConstraint=eastwest;rotatable=0;whiteSpace=wrap;html=1;" vertex="1" parent="HUgngF4sUjFD6s-CNiiS-112">
          <mxGeometry y="60" width="140" height="30" as="geometry" />
        </mxCell>
        <mxCell id="HUgngF4sUjFD6s-CNiiS-118" value="Proveedores asociados" style="text;strokeColor=none;fillColor=none;align=left;verticalAlign=middle;spacingLeft=4;spacingRight=4;overflow=hidden;points=[[0,0.5],[1,0.5]];portConstraint=eastwest;rotatable=0;whiteSpace=wrap;html=1;" vertex="1" parent="HUgngF4sUjFD6s-CNiiS-112">
          <mxGeometry y="90" width="140" height="30" as="geometry" />
        </mxCell>
        <mxCell id="HUgngF4sUjFD6s-CNiiS-119" value="&lt;font face=&quot;ui-sans-serif, -apple-system, system-ui, Segoe UI, Roboto, Ubuntu, Cantarell, Noto Sans, sans-serif, Helvetica, Apple Color Emoji, Arial, Segoe UI Emoji, Segoe UI Symbol&quot; color=&quot;#0d0d0d&quot;&gt;&lt;span style=&quot;font-size: 16px; white-space-collapse: preserve;&quot;&gt;Clasificación&lt;/span&gt;&lt;/font&gt;&amp;nbsp;" style="text;strokeColor=none;fillColor=none;align=left;verticalAlign=middle;spacingLeft=4;spacingRight=4;overflow=hidden;points=[[0,0.5],[1,0.5]];portConstraint=eastwest;rotatable=0;whiteSpace=wrap;html=1;" vertex="1" parent="HUgngF4sUjFD6s-CNiiS-112">
          <mxGeometry y="120" width="140" height="30" as="geometry" />
        </mxCell>
        <mxCell id="HUgngF4sUjFD6s-CNiiS-115" value="Precio" style="text;strokeColor=none;fillColor=none;align=left;verticalAlign=middle;spacingLeft=4;spacingRight=4;overflow=hidden;points=[[0,0.5],[1,0.5]];portConstraint=eastwest;rotatable=0;whiteSpace=wrap;html=1;" vertex="1" parent="HUgngF4sUjFD6s-CNiiS-112">
          <mxGeometry y="150" width="140" height="30" as="geometry" />
        </mxCell>
        <mxCell id="HUgngF4sUjFD6s-CNiiS-44" style="edgeStyle=orthogonalEdgeStyle;rounded=0;orthogonalLoop=1;jettySize=auto;html=1;exitX=1;exitY=0.5;exitDx=0;exitDy=0;" edge="1" parent="HUgngF4sUjFD6s-CNiiS-120" source="8" target="16">
          <mxGeometry relative="1" as="geometry" />
        </mxCell>
        <mxCell id="20" value="" style="endArrow=open;endFill=1;rounded=0" parent="HUgngF4sUjFD6s-CNiiS-120" source="10" target="18" edge="1">
          <mxGeometry relative="1" as="geometry" />
        </mxCell>
        <mxCell id="HUgngF4sUjFD6s-CNiiS-43" style="edgeStyle=orthogonalEdgeStyle;rounded=0;orthogonalLoop=1;jettySize=auto;html=1;exitX=1;exitY=0.75;exitDx=0;exitDy=0;entryX=0;entryY=0.5;entryDx=0;entryDy=0;fillColor=#d0cee2;strokeColor=#56517e;strokeWidth=3;" edge="1" parent="HUgngF4sUjFD6s-CNiiS-120" source="7" target="18">
          <mxGeometry relative="1" as="geometry" />
        </mxCell>
        <mxCell id="HUgngF4sUjFD6s-CNiiS-168" value="FACTURA DE VENTA" style="whiteSpace=wrap;html=1;" vertex="1" parent="HUgngF4sUjFD6s-CNiiS-120">
          <mxGeometry x="49" y="404.5" width="120" height="60" as="geometry" />
        </mxCell>
        <mxCell id="HUgngF4sUjFD6s-CNiiS-187" style="edgeStyle=orthogonalEdgeStyle;rounded=0;orthogonalLoop=1;jettySize=auto;html=1;entryX=0;entryY=0.5;entryDx=0;entryDy=0;strokeWidth=3;fillColor=#008a00;strokeColor=#005700;" edge="1" parent="HUgngF4sUjFD6s-CNiiS-120" source="HUgngF4sUjFD6s-CNiiS-172" target="HUgngF4sUjFD6s-CNiiS-168">
          <mxGeometry relative="1" as="geometry">
            <Array as="points">
              <mxPoint x="295" y="106" />
              <mxPoint x="29" y="106" />
              <mxPoint x="29" y="435" />
            </Array>
          </mxGeometry>
        </mxCell>
        <mxCell id="HUgngF4sUjFD6s-CNiiS-172" value="DATOS DE PUNTO DE VENTA" style="whiteSpace=wrap;html=1;" vertex="1" parent="HUgngF4sUjFD6s-CNiiS-120">
          <mxGeometry x="235.5" y="115" width="120" height="60" as="geometry" />
        </mxCell>
        <mxCell id="HUgngF4sUjFD6s-CNiiS-173" style="edgeStyle=orthogonalEdgeStyle;rounded=0;orthogonalLoop=1;jettySize=auto;html=1;exitX=1;exitY=0.75;exitDx=0;exitDy=0;fillColor=#fa6800;strokeColor=#C73500;strokeWidth=3;" edge="1" parent="HUgngF4sUjFD6s-CNiiS-120" source="30" target="HUgngF4sUjFD6s-CNiiS-165">
          <mxGeometry relative="1" as="geometry">
            <Array as="points">
              <mxPoint x="1090" y="415" />
              <mxPoint x="1090" y="668" />
              <mxPoint x="204" y="668" />
              <mxPoint x="204" y="154" />
            </Array>
          </mxGeometry>
        </mxCell>
        <mxCell id="HUgngF4sUjFD6s-CNiiS-174" style="edgeStyle=orthogonalEdgeStyle;rounded=0;orthogonalLoop=1;jettySize=auto;html=1;entryX=1;entryY=0.75;entryDx=0;entryDy=0;fillColor=#fa6800;strokeColor=#C73500;strokeWidth=3;" edge="1" parent="HUgngF4sUjFD6s-CNiiS-120" source="HUgngF4sUjFD6s-CNiiS-100" target="HUgngF4sUjFD6s-CNiiS-165">
          <mxGeometry relative="1" as="geometry">
            <Array as="points">
              <mxPoint x="205" y="559" />
              <mxPoint x="205" y="169" />
            </Array>
          </mxGeometry>
        </mxCell>
        <mxCell id="HUgngF4sUjFD6s-CNiiS-175" style="edgeStyle=orthogonalEdgeStyle;rounded=0;orthogonalLoop=1;jettySize=auto;html=1;entryX=1;entryY=0.75;entryDx=0;entryDy=0;fillColor=#fa6800;strokeColor=#C73500;strokeWidth=3;" edge="1" parent="HUgngF4sUjFD6s-CNiiS-120" source="8" target="HUgngF4sUjFD6s-CNiiS-165">
          <mxGeometry relative="1" as="geometry">
            <Array as="points">
              <mxPoint x="208" y="331" />
              <mxPoint x="208" y="169" />
            </Array>
          </mxGeometry>
        </mxCell>
        <mxCell id="HUgngF4sUjFD6s-CNiiS-176" style="edgeStyle=orthogonalEdgeStyle;rounded=0;orthogonalLoop=1;jettySize=auto;html=1;entryX=1;entryY=0.5;entryDx=0;entryDy=0;fillColor=#60a917;strokeColor=#2D7600;strokeWidth=3;" edge="1" parent="HUgngF4sUjFD6s-CNiiS-120" source="7" target="HUgngF4sUjFD6s-CNiiS-168">
          <mxGeometry relative="1" as="geometry">
            <Array as="points">
              <mxPoint x="224" y="209" />
              <mxPoint x="224" y="434" />
            </Array>
          </mxGeometry>
        </mxCell>
        <mxCell id="HUgngF4sUjFD6s-CNiiS-177" style="edgeStyle=orthogonalEdgeStyle;rounded=0;orthogonalLoop=1;jettySize=auto;html=1;entryX=1;entryY=0.5;entryDx=0;entryDy=0;fillColor=#60a917;strokeColor=#2D7600;strokeWidth=3;" edge="1" parent="HUgngF4sUjFD6s-CNiiS-120" source="10" target="HUgngF4sUjFD6s-CNiiS-168">
          <mxGeometry relative="1" as="geometry" />
        </mxCell>
        <mxCell id="HUgngF4sUjFD6s-CNiiS-178" style="edgeStyle=orthogonalEdgeStyle;rounded=0;orthogonalLoop=1;jettySize=auto;html=1;entryX=1;entryY=0.5;entryDx=0;entryDy=0;fillColor=#1ba1e2;strokeColor=#006EAF;strokeWidth=3;" edge="1" parent="HUgngF4sUjFD6s-CNiiS-120" source="HUgngF4sUjFD6s-CNiiS-118" target="10">
          <mxGeometry relative="1" as="geometry" />
        </mxCell>
        <mxCell id="HUgngF4sUjFD6s-CNiiS-179" style="edgeStyle=orthogonalEdgeStyle;rounded=0;orthogonalLoop=1;jettySize=auto;html=1;entryX=1;entryY=0.5;entryDx=0;entryDy=0;fillColor=#0050ef;strokeColor=#001DBC;" edge="1" parent="HUgngF4sUjFD6s-CNiiS-120" source="16" target="10">
          <mxGeometry relative="1" as="geometry" />
        </mxCell>
        <mxCell id="HUgngF4sUjFD6s-CNiiS-180" style="edgeStyle=orthogonalEdgeStyle;rounded=0;orthogonalLoop=1;jettySize=auto;html=1;entryX=0.383;entryY=0.973;entryDx=0;entryDy=0;entryPerimeter=0;fillColor=#60a917;strokeColor=#2D7600;strokeWidth=3;" edge="1" parent="HUgngF4sUjFD6s-CNiiS-120" source="HUgngF4sUjFD6s-CNiiS-56" target="HUgngF4sUjFD6s-CNiiS-168">
          <mxGeometry relative="1" as="geometry">
            <Array as="points">
              <mxPoint x="1013" y="657" />
              <mxPoint x="95" y="657" />
            </Array>
          </mxGeometry>
        </mxCell>
        <mxCell id="HUgngF4sUjFD6s-CNiiS-182" style="edgeStyle=orthogonalEdgeStyle;rounded=0;orthogonalLoop=1;jettySize=auto;html=1;entryX=0.523;entryY=1.108;entryDx=0;entryDy=0;entryPerimeter=0;" edge="1" parent="HUgngF4sUjFD6s-CNiiS-120" source="HUgngF4sUjFD6s-CNiiS-168" target="HUgngF4sUjFD6s-CNiiS-166">
          <mxGeometry relative="1" as="geometry" />
        </mxCell>
        <mxCell id="HUgngF4sUjFD6s-CNiiS-183" value="DIAGRAMA DE FUNDAMENTOS PARA&lt;br&gt;VENTA DE PROCUCTOS DE CONSTRUCCION" style="text;strokeColor=none;fillColor=none;html=1;fontSize=24;fontStyle=1;verticalAlign=middle;align=center;" vertex="1" parent="1">
          <mxGeometry x="-851" y="36" width="100" height="40" as="geometry" />
        </mxCell>
        <mxCell id="HUgngF4sUjFD6s-CNiiS-185" value="&lt;h1 style=&quot;margin-top: 0px;&quot;&gt;Problema&lt;/h1&gt;&lt;p&gt;&lt;font style=&quot;font-size: 15px;&quot; face=&quot;Georgia&quot;&gt;Un establecimiento de venta de suministros para construcción necesita un sistema de control que permita registrar y gestionar productos, clientes, proveedores y ventas. El sistema debe ser fácil de usar y proporcionar información clara sobre el inventario, clientes frecuentes, ventas y compras.&lt;/font&gt;&lt;/p&gt;" style="text;html=1;whiteSpace=wrap;overflow=hidden;rounded=0;" vertex="1" parent="1">
          <mxGeometry x="-1111" y="109" width="549" height="120" as="geometry" />
        </mxCell>
        <mxCell id="HUgngF4sUjFD6s-CNiiS-189" value="&lt;h1 style=&quot;margin-top: 0px; font-size: 23px;&quot;&gt;&lt;font style=&quot;font-size: 23px;&quot; face=&quot;Georgia&quot;&gt;Solución&lt;/font&gt;&lt;/h1&gt;&lt;pre style=&quot;font-size: 14px;&quot;&gt;&lt;font face=&quot;Lucida Console&quot;&gt;&lt;font style=&quot;font-size: 14px;&quot;&gt;Se propone un sistema de control con los siguientes elementos clave:&lt;br&gt;&lt;/font&gt;&lt;font style=&quot;font-size: 14px;&quot;&gt;Actores:&lt;br&gt;&lt;/font&gt;&lt;font style=&quot;font-size: 14px;&quot;&gt;Administrador del Sistema: Configura y gestiona el sistema y los usuarios.&lt;br&gt;&lt;/font&gt;&lt;font style=&quot;font-size: 14px;&quot;&gt;Empleado de Ventas: Registra ventas y gestiona información de clientes.&lt;br&gt;&lt;/font&gt;&lt;font style=&quot;font-size: 14px;&quot;&gt;Encargado de Inventario: Gestiona el inventario y proveedores.&lt;br&gt;&lt;/font&gt;&lt;font style=&quot;font-size: 14px;&quot;&gt;Casos de Uso:&lt;br&gt;&lt;/font&gt;&lt;font style=&quot;font-size: 14px;&quot;&gt;Configurar Sistema: Realizado por el Administrador del Sistema.&lt;br&gt;&lt;/font&gt;&lt;font style=&quot;font-size: 14px;&quot;&gt;Gestionar Usuarios: Realizado por el Administrador del Sistema.&lt;br&gt;&lt;/font&gt;&lt;font style=&quot;font-size: 14px;&quot;&gt;Registrar Ventas: Realizado por el Empleado de Ventas.&lt;br&gt;&lt;/font&gt;&lt;font style=&quot;font-size: 14px;&quot;&gt;Gestionar Clientes: Realizado por el Empleado de Ventas.&lt;br&gt;&lt;/font&gt;&lt;font style=&quot;font-size: 14px;&quot;&gt;Generar Facturas: Realizado por el Empleado de Ventas.&lt;br&gt;&lt;/font&gt;&lt;font style=&quot;font-size: 14px;&quot;&gt;Registrar Entradas y Salidas de Productos: Realizado por el Encargado &lt;br/&gt;de Inventario.&lt;br&gt;&lt;/font&gt;&lt;font style=&quot;font-size: 14px;&quot;&gt;Gestionar Proveedores: Realizado por el Encargado de Inventario.&lt;br&gt;&lt;/font&gt;&lt;font style=&quot;font-size: 14px;&quot;&gt;Consultar Informes: Realizado por todos los actores.&lt;br&gt;&lt;/font&gt;&lt;font style=&quot;font-size: 14px;&quot;&gt;Diagrama de Caso de Uso&lt;br&gt;&lt;/font&gt;&lt;font style=&quot;font-size: 14px;&quot;&gt;A continuación se presenta un diagrama de caso de uso simplificado que&lt;br&gt; muestra las interacciones entre los actores y los casos de uso en el sistema:&lt;/font&gt;&lt;/font&gt;&lt;/pre&gt;" style="text;html=1;whiteSpace=wrap;overflow=hidden;rounded=0;strokeColor=none;" vertex="1" parent="1">
          <mxGeometry x="-1111" y="244" width="665" height="594" as="geometry" />
        </mxCell>
      </root>
    </mxGraphModel>
  </diagram>
</mxfile>
